<svg width="40" height="35" viewBox="0 0 40 35" fill="none" xmlns="http://www.w3.org/2000/svg">
<path d="M39.2056 0.85C38.6618 0.310301 37.9345 0.0057606 37.1757 0H2.85366C2.09825 0.00832719 1.37493 0.31268 0.833563 0.85C0.567547 1.12187 0.356935 1.44476 0.213875 1.80003C0.0708155 2.15531 -0.00185421 2.53594 3.59461e-05 2.92V26.25C3.15027e-05 27.0227 0.300358 27.7639 0.835239 28.3112C1.37012 28.8585 2.09593 29.1674 2.85366 29.17H18.5437V32.08H7.14882C6.77981 32.0891 6.42849 32.2431 6.16819 32.51C5.97053 32.7123 5.83541 32.9693 5.77955 33.2492C5.72369 33.5291 5.74955 33.8195 5.85392 34.0845C5.9583 34.3495 6.13661 34.5775 6.36677 34.7402C6.59693 34.903 6.86883 34.9933 7.14882 35H32.8904C33.0735 34.9976 33.2544 34.9584 33.4227 34.8846C33.591 34.8108 33.7433 34.7039 33.871 34.57C34.0687 34.3677 34.2038 34.1107 34.2596 33.8308C34.3155 33.5509 34.2896 33.2605 34.1853 32.9955C34.0809 32.7305 33.9026 32.5025 33.6724 32.3398C33.4423 32.177 33.1704 32.0867 32.8904 32.08H21.4464V29.17H37.1365C37.8959 29.17 38.6243 28.8624 39.1613 28.3148C39.6982 27.7671 39.9999 27.0244 39.9999 26.25V2.92C40.0049 2.15174 39.7206 1.41083 39.2056 0.85ZM37.1757 26.25H2.85366V2.92H37.1757V26.25Z" fill="white"/>
<path d="M5.884 10.25C6.14922 10.25 6.40729 10.1623 6.61947 10L10.542 7.00001C10.8021 6.80109 10.974 6.50497 11.02 6.17678C11.066 5.84859 10.9822 5.51522 10.7872 5.25001C10.5921 4.98479 10.3017 4.80945 9.97987 4.76257C9.65804 4.71568 9.33113 4.80109 9.07105 5.00001L5.14853 8.00001C4.94271 8.15742 4.79067 8.37688 4.71396 8.6273C4.63725 8.87772 4.63975 9.1464 4.7211 9.39529C4.80246 9.64418 4.95855 9.86066 5.16726 10.0141C5.37597 10.1675 5.62673 10.25 5.884 10.25Z" fill="white"/>
<path d="M4.89367 14.73C5.00465 14.8901 5.15156 15.0209 5.32214 15.1113C5.49272 15.2018 5.68203 15.2493 5.8743 15.25C6.13171 15.2487 6.38217 15.1647 6.59015 15.01L17.3771 7.01002C17.528 6.9231 17.6591 6.80452 17.7618 6.66212C17.8645 6.51973 17.9364 6.35674 17.9728 6.18393C18.0091 6.01111 18.0091 5.8324 17.9728 5.65957C17.9365 5.48675 17.8646 5.32375 17.762 5.18134C17.6593 5.03892 17.5282 4.92032 17.3773 4.83336C17.2264 4.74641 17.0591 4.69308 16.8865 4.67689C16.7139 4.6607 16.5399 4.68202 16.376 4.73944C16.2121 4.79687 16.062 4.88909 15.9356 5.01002L5.14864 13.01C4.89331 13.2052 4.72347 13.495 4.67577 13.8168C4.62807 14.1386 4.70633 14.4666 4.89367 14.73Z" fill="white"/>
</svg>
