<svg width="49" height="36" viewBox="0 0 49 36" fill="none" xmlns="http://www.w3.org/2000/svg">
<path fill-rule="evenodd" clip-rule="evenodd" d="M45.9697 3.89129C45.9411 2.8496 45.507 1.86022 44.76 1.13371C44.0129 0.407189 43.0118 0.00089484 41.9697 0.00128895H7.06973C6.01045 -0.0255928 4.9838 0.368923 4.21511 1.09824C3.44642 1.82755 2.99852 2.83207 2.96973 3.89129V26.1113C2.99855 27.1652 3.4423 28.1651 4.20447 28.8936C4.96664 29.622 5.98559 30.0201 7.03973 30.0013H41.9697C43.0118 30.0017 44.0129 29.5954 44.76 28.8689C45.507 28.1424 45.9411 27.153 45.9697 26.1113V3.89129ZM42.4797 3.89129V26.1113C42.4757 26.2492 42.4217 26.3809 42.3279 26.482C42.2342 26.5831 42.1069 26.6468 41.9697 26.6613H7.06973C6.99487 26.6626 6.92049 26.6492 6.85082 26.6218C6.78116 26.5943 6.71758 26.5534 6.66372 26.5014C6.60986 26.4494 6.56677 26.3873 6.53692 26.3187C6.50706 26.25 6.49103 26.1761 6.48973 26.1013V3.89129C6.49101 3.81688 6.50711 3.74347 6.53708 3.67536C6.56706 3.60724 6.61031 3.54579 6.66431 3.49458C6.71831 3.44337 6.78198 3.40344 6.85159 3.37712C6.9212 3.3508 6.99535 3.33862 7.06973 3.34129H41.9697C42.113 3.34639 42.2489 3.40628 42.3494 3.5086C42.4499 3.61093 42.5073 3.74791 42.5097 3.89129H42.4797Z" fill="white"/>
<path fill-rule="evenodd" clip-rule="evenodd" d="M47.29 31.9113H1.71C1.25648 31.9113 0.821534 32.0914 0.500847 32.4121C0.18016 32.7328 0 33.1677 0 33.6213C0 34.0748 0.18016 34.5097 0.500847 34.8304C0.821534 35.1511 1.25648 35.3313 1.71 35.3313H47.29C47.7435 35.3313 48.1785 35.1511 48.4992 34.8304C48.8198 34.5097 49 34.0748 49 33.6213C49 33.1677 48.8198 32.7328 48.4992 32.4121C48.1785 32.0914 47.7435 31.9113 47.29 31.9113Z" fill="white"/>
</svg>
