<svg width="36" height="36" viewBox="0 0 36 36" fill="none" xmlns="http://www.w3.org/2000/svg">
<path d="M23.7262 7.09842C23.7235 6.72312 23.5749 6.3641 23.3127 6.09967C23.0504 5.83524 22.6959 5.68685 22.3264 5.68686H16.7273C16.5355 5.67029 16.3425 5.69435 16.1604 5.75752C15.9783 5.82068 15.8111 5.92156 15.6693 6.05378C15.5276 6.186 15.4145 6.34668 15.3371 6.52562C15.2597 6.70457 15.2197 6.89789 15.2197 7.09334C15.2197 7.2888 15.2597 7.48212 15.3371 7.66106C15.4145 7.84001 15.5276 8.00068 15.6693 8.1329C15.8111 8.26512 15.9783 8.36601 16.1604 8.42917C16.3425 8.49233 16.5355 8.51639 16.7273 8.49983H22.3164C22.4997 8.50252 22.6818 8.46832 22.8521 8.39922C23.0223 8.33012 23.1775 8.22748 23.3085 8.09721C23.4396 7.96695 23.5439 7.81163 23.6156 7.64021C23.6873 7.46879 23.7249 7.28466 23.7262 7.09842Z" fill="white"/>
<path d="M14.8372 15.2428C16.2014 15.2668 17.5113 15.7896 18.5266 16.7153C18.6641 16.8434 18.8254 16.9423 19.0011 17.0062C19.1768 17.07 19.3633 17.0975 19.5496 17.0871C19.7359 17.0767 19.9183 17.0286 20.086 16.9456C20.2537 16.8625 20.4034 16.7463 20.5263 16.6036C20.6544 16.4646 20.7533 16.3006 20.8169 16.1215C20.8805 15.9424 20.9076 15.752 20.8963 15.5619C20.8851 15.3718 20.8359 15.1861 20.7516 15.016C20.6674 14.8459 20.5498 14.695 20.4063 14.5726C19.211 13.4761 17.7286 12.7547 16.1383 12.4955C14.548 12.2363 12.9178 12.4504 11.4447 13.112C9.97164 13.7737 8.71876 14.8544 7.83746 16.2237C6.95616 17.593 6.48417 19.1923 6.47852 20.8282C6.48389 22.5991 7.03833 24.3234 8.06313 25.7562C9.08794 27.189 10.531 28.2575 12.1876 28.8101C12.3286 28.8624 12.4774 28.8899 12.6275 28.8914C12.9207 28.8923 13.2068 28.7996 13.4454 28.6265C13.684 28.4534 13.8631 28.2086 13.9573 27.9266C14.0154 27.753 14.0392 27.5694 14.0271 27.3864C14.0151 27.2034 13.9676 27.0246 13.8873 26.8603C13.8077 26.6917 13.6947 26.5415 13.5553 26.4192C13.416 26.2969 13.2533 26.2051 13.0775 26.1495C11.8256 25.7289 10.7629 24.8678 10.0811 23.7214C9.39932 22.5751 9.14333 21.219 9.35933 19.8979C9.57532 18.5767 10.2491 17.3774 11.259 16.5164C12.269 15.6554 13.5486 15.1893 14.8672 15.2022L14.8372 15.2428Z" fill="white"/>
<path d="M13.8578 33.1566H8.40864C7.67861 33.1606 6.95495 33.0185 6.27898 32.7385C5.603 32.4584 4.98795 32.0459 4.46895 31.5244C3.94995 31.0029 3.53717 30.3827 3.25416 29.6992C2.97116 29.0157 2.82347 28.2823 2.81954 27.5408V5.758C2.81954 4.97331 3.12576 4.22061 3.67112 3.6648C4.21648 3.10899 4.9565 2.79539 5.72908 2.7927H23.7262C24.1163 2.78184 24.5045 2.85052 24.868 2.99467C25.2315 3.13882 25.5629 3.35552 25.8425 3.63196C26.1222 3.90841 26.3444 4.23898 26.4961 4.60415C26.6478 4.96931 26.7259 5.36166 26.7257 5.758V17.7005C26.7257 18.0775 26.8732 18.4391 27.1357 18.7058C27.3982 18.9724 27.7542 19.1222 28.1255 19.1222C28.4967 19.1222 28.8528 18.9724 29.1153 18.7058C29.3778 18.4391 29.5253 18.0775 29.5253 17.7005V5.758C29.5121 4.22272 28.9009 2.75519 27.8255 1.67622C26.7501 0.597251 25.2978 -0.00539056 23.7862 3.63373e-05H5.72908C4.21838 -0.00537565 2.76716 0.59759 1.69332 1.67684C0.619477 2.7561 0.0105735 4.22365 0 5.758V27.5408C0.015859 29.7871 0.907612 31.9355 2.47993 33.5153C4.05226 35.0952 6.17697 35.9777 8.38866 35.9696H13.8378C14.0295 35.9861 14.2226 35.9621 14.4047 35.8989C14.5868 35.8357 14.754 35.7348 14.8957 35.6026C15.0374 35.4704 15.1506 35.3097 15.228 35.1308C15.3054 34.9518 15.3453 34.7585 15.3453 34.5631C15.3453 34.3676 15.3054 34.1743 15.228 33.9953C15.1506 33.8164 15.0374 33.6557 14.8957 33.5235C14.754 33.3913 14.5868 33.2904 14.4047 33.2272C14.2226 33.1641 14.0295 33.14 13.8378 33.1566H13.8578Z" fill="white"/>
<path d="M35.1546 23.4686C34.9443 23.2328 34.7058 23.0247 34.4447 22.8491L35.6445 21.4985C35.8726 21.2155 35.9846 20.8542 35.9572 20.4895C35.9298 20.1249 35.7651 19.785 35.4973 19.5405C35.2295 19.296 34.8793 19.1657 34.5194 19.1767C34.1595 19.1877 33.8176 19.3391 33.5648 19.5994L31.1952 22.2703H21.8367L19.4671 19.5994C19.3413 19.4556 19.1875 19.3398 19.0154 19.2594C18.8433 19.179 18.6566 19.1357 18.4672 19.1323C18.285 19.122 18.1025 19.149 17.9307 19.2118C17.7589 19.2746 17.6014 19.3719 17.4674 19.4979C17.3258 19.6257 17.2118 19.7819 17.1326 19.9567C17.0534 20.1315 17.0108 20.321 17.0075 20.5134C16.9955 20.6987 17.0213 20.8845 17.0832 21.0593C17.1452 21.234 17.2419 21.3939 17.3674 21.5289L18.5572 22.8796C18.2972 23.0527 18.0617 23.2611 17.8573 23.499C17.5286 23.8786 17.2829 24.3247 17.1364 24.8078C16.9899 25.291 16.9459 25.8002 17.0075 26.3018L17.6974 31.6739C17.8524 32.8693 18.4295 33.9669 19.3215 34.7626C20.2134 35.5583 21.3595 35.998 22.5466 36H30.4253C31.6142 36.0005 32.7626 35.5619 33.6567 34.766C34.5507 33.97 35.1293 32.8711 35.2845 31.6739L35.9644 26.3018C36.0357 25.7982 36.0004 25.285 35.8607 24.7964C35.721 24.3078 35.4803 23.8551 35.1546 23.4686ZM32.535 31.288C32.467 31.7986 32.2186 32.2666 31.8359 32.6048C31.4533 32.943 30.9625 33.1283 30.4553 33.1261H22.5766C22.0699 33.1261 21.5803 32.9401 21.1981 32.6023C20.8159 32.2645 20.5669 31.7977 20.4969 31.288L19.817 25.9058C19.8054 25.8058 19.8145 25.7044 19.8438 25.6082C19.873 25.512 19.9218 25.4231 19.987 25.3473C20.0523 25.273 20.1325 25.2138 20.2222 25.1736C20.3118 25.1333 20.4089 25.1129 20.5069 25.1137H32.505C32.6047 25.1114 32.7037 25.1311 32.7952 25.1714C32.8867 25.2118 32.9684 25.2717 33.0349 25.3473C33.0983 25.424 33.1453 25.5133 33.1728 25.6094C33.2003 25.7056 33.2079 25.8065 33.1949 25.9058L32.535 31.288Z" fill="white"/>
</svg>
