<svg width="44" height="35" viewBox="0 0 44 35" fill="none" xmlns="http://www.w3.org/2000/svg">
<path d="M38.4161 22.1151L38.0238 19.8017C38.6764 19.819 39.3246 19.9119 39.9547 20.0786C40.3355 20.1795 40.7416 20.1284 41.0838 19.9365C41.426 19.7446 41.6763 19.4277 41.7795 19.0553C41.8827 18.683 41.8305 18.2859 41.6343 17.9512C41.438 17.6166 41.1139 17.3719 40.7332 17.2709C39.7441 17.0108 38.7245 16.8779 37.7003 16.8755L35.9413 1.19621C35.9218 1.03009 35.8703 0.869082 35.7896 0.721681C35.7925 0.702011 35.7925 0.682035 35.7896 0.662365C35.7081 0.520429 35.602 0.393337 35.4762 0.286695C35.3391 0.185789 35.1852 0.108859 35.0213 0.0593163H34.9606C34.8355 0.0244121 34.7065 0.00449421 34.5765 0H30.3204C30.1252 -2.84379e-09 29.932 0.0375893 29.7517 0.110622C29.5714 0.183654 29.4075 0.2907 29.2696 0.425647C29.1316 0.560593 29.0221 0.720798 28.9474 0.897114C28.8727 1.07343 28.8343 1.26241 28.8343 1.45325C28.8343 1.64409 28.8727 1.83307 28.9474 2.00938C29.0221 2.1857 29.1316 2.3459 29.2696 2.48085C29.4075 2.6158 29.5714 2.72284 29.7517 2.79588C29.932 2.86891 30.1252 2.9065 30.3204 2.9065H33.1207L34.7382 17.3302C32.8264 17.8086 31.0681 18.7492 29.6249 20.0655C28.1817 21.3818 27.0998 23.0316 26.4788 24.8634H12.1637C11.4005 23.7346 10.2953 22.8676 9.00298 22.3838C7.71067 21.9 6.29596 21.8236 4.95703 22.1653C3.6181 22.5071 2.42202 23.2498 1.53634 24.2895C0.650656 25.3293 0.119745 26.6138 0.0179671 27.9634C-0.0838105 29.3129 0.248642 30.6598 0.968765 31.8153C1.68889 32.9708 2.7606 33.8771 4.03378 34.4072C5.30696 34.9374 6.71782 35.0648 8.06874 34.7716C9.41965 34.4784 10.6429 33.7793 11.5672 32.7722H27.8132C27.9404 32.7726 28.0667 32.7526 28.1873 32.7129C28.3435 32.6645 28.4904 32.591 28.622 32.4954C28.7184 32.4259 28.8036 32.3426 28.8747 32.2483L28.9556 32.1099V32.0407V31.9319L29.0163 31.7342C29.0115 31.6981 29.0115 31.6616 29.0163 31.6255C29.0213 31.553 29.0213 31.4804 29.0163 31.408V31.3091C29.0251 31.2137 29.0251 31.1178 29.0163 31.0224C28.7706 30.2238 28.6446 29.3947 28.6422 28.5608C28.6422 28.2642 28.6422 27.9577 28.6422 27.6612C28.6422 27.5821 28.6422 27.5129 28.6422 27.4338C28.6422 27.3547 28.7029 26.9988 28.7433 26.7813C29.0768 25.2776 29.8148 23.8882 30.8812 22.7568C31.9476 21.6253 33.3035 20.7929 34.809 20.3455L35.0516 22.5105C33.5361 23.0742 32.2857 24.1636 31.5389 25.571C30.7921 26.9784 30.6011 28.6054 31.0023 30.1417C31.4035 31.678 32.3688 33.0162 33.7143 33.9011C35.0597 34.786 36.6911 35.1558 38.2975 34.9398C39.9038 34.7239 41.3727 33.9374 42.4241 32.7303C43.4755 31.5233 44.0358 29.98 43.9982 28.3948C43.9607 26.8096 43.3278 25.2934 42.2204 24.1352C41.1129 22.9771 40.0152 22.258 38.4003 22.1151H38.4161ZM37.6397 24.7942C38.3615 24.7942 39.0671 25.0035 39.6672 25.3957C40.2674 25.7878 40.7352 26.3452 41.0114 26.9973C41.2876 27.6494 41.3599 28.367 41.2191 29.0593C41.0783 29.7516 40.7307 30.3875 40.2203 30.8866C39.7099 31.3857 39.0596 31.7256 38.3516 31.8633C37.6437 32.0011 36.9099 31.9304 36.243 31.6603C35.5762 31.3901 35.0062 30.9327 34.6052 30.3458C34.2042 29.7589 33.9901 29.0689 33.9901 28.3631C33.9901 27.4165 34.3746 26.5088 35.0591 25.8395C35.7435 25.1702 36.6717 24.7942 37.6397 24.7942ZM25.9733 29.668C25.9683 29.7074 25.9683 29.7473 25.9733 29.7866H13.1241C13.1194 29.7671 13.1194 29.7468 13.1241 29.7273C13.1241 29.579 13.1241 29.4209 13.1949 29.2726C13.2656 29.1243 13.1949 29.1243 13.1949 29.0551C13.1949 28.8277 13.1949 28.6003 13.1949 28.3631C13.1949 28.1258 13.1949 27.9083 13.1949 27.6908H25.8621C25.8621 27.9182 25.8621 28.1555 25.8621 28.3828C25.8747 28.8129 25.9118 29.242 25.9733 29.668ZM9.99017 26.9098C10.0592 27.0627 10.1133 27.2216 10.1519 27.3843C10.1834 27.4585 10.2104 27.5345 10.2328 27.6117C10.2852 27.8589 10.3123 28.1106 10.3137 28.3631C10.3107 28.5822 10.287 28.8006 10.2429 29.0155C10.2429 29.0749 10.2429 29.1342 10.2429 29.2034C10.2064 29.3515 10.1591 29.4969 10.1014 29.6384L10.0306 29.8262C9.94973 29.9745 9.86885 30.1327 9.77787 30.2711L9.71721 30.3798C9.26203 31.0355 8.59718 31.5249 7.82692 31.7712C7.05666 32.0176 6.22457 32.0069 5.46117 31.741C4.69776 31.475 4.04622 30.9688 3.60874 30.3017C3.17126 29.6346 2.97259 28.8443 3.04388 28.0549C3.11518 27.2655 3.45241 26.5216 4.00269 25.9398C4.55296 25.358 5.28515 24.9713 6.08441 24.8403C6.88367 24.7093 7.70478 24.8414 8.41896 25.2159C9.13315 25.5905 9.7 26.1863 10.0306 26.9098H9.99017Z" fill="white"/>
</svg>
