<svg width="35" height="35" viewBox="0 0 35 35" fill="none" xmlns="http://www.w3.org/2000/svg">
<path d="M30.696 0.000178019H11.0443C10.4741 -0.00498577 9.90848 0.102237 9.38004 0.315671C8.8516 0.529106 8.37078 0.844535 7.96528 1.24379C7.55977 1.64305 7.23759 2.11825 7.01729 2.64202C6.79699 3.1658 6.68291 3.7278 6.68164 4.29565V6.4385C6.68164 6.81997 6.83382 7.18582 7.1047 7.45557C7.37557 7.72531 7.74296 7.87685 8.12604 7.87685C8.50912 7.87685 8.87651 7.72531 9.14739 7.45557C9.41827 7.18582 9.57044 6.81997 9.57044 6.4385V4.29565C9.57044 3.91937 9.72055 3.5585 9.98774 3.29243C10.2549 3.02635 10.6173 2.87688 10.9952 2.87688H30.6469C30.834 2.87688 31.0193 2.91357 31.1921 2.98487C31.365 3.05617 31.5221 3.16068 31.6544 3.29243C31.7867 3.42417 31.8916 3.58058 31.9632 3.75271C32.0348 3.92485 32.0717 4.10934 32.0717 4.29565V30.7143C32.0717 31.0906 31.9216 31.4515 31.6544 31.7175C31.3872 31.9836 31.0248 32.1331 30.6469 32.1331H18.512C18.1507 32.1628 17.8139 32.3267 17.5684 32.5923C17.3229 32.8578 17.1866 33.2056 17.1866 33.5665C17.1866 33.9275 17.3229 34.2753 17.5684 34.5408C17.8139 34.8063 18.1507 34.9703 18.512 35H30.696C31.2612 35 31.8209 34.8891 32.343 34.6738C32.8652 34.4584 33.3396 34.1427 33.7392 33.7447C34.1389 33.3468 34.4559 32.8743 34.6722 32.3544C34.8884 31.8344 34.9998 31.2771 34.9998 30.7143V4.29565C34.9998 3.15812 34.5467 2.06703 33.7398 1.26175C32.933 0.456471 31.8384 0.00276922 30.696 0.000178019Z" fill="white"/>
<path d="M13.501 8.68904H2.75152C2.38643 8.6903 2.02521 8.76365 1.68878 8.90484C1.35234 9.04603 1.04736 9.25227 0.791497 9.51161C0.535631 9.77096 0.333957 10.0783 0.198145 10.4157C0.0623331 10.7532 -0.00491924 11.1141 0.00028001 11.4777V32.1234C0.0028693 32.8492 0.293563 33.5445 0.80896 34.0578C1.32436 34.571 2.02264 34.8605 2.75152 34.8631H13.501C14.2299 34.8605 14.9282 34.571 15.4436 34.0578C15.959 33.5445 16.2497 32.8492 16.2523 32.1234V11.4777C16.2575 11.1141 16.1902 10.7532 16.0544 10.4157C15.9186 10.0783 15.7169 9.77096 15.461 9.51161C15.2052 9.25227 14.9002 9.04603 14.5638 8.90484C14.2273 8.76365 13.8661 8.6903 13.501 8.68904ZM10.4255 11.3211C10.4154 11.4416 10.4154 11.5627 10.4255 11.6832C10.4269 11.6981 10.4251 11.7131 10.4203 11.7274C10.4155 11.7416 10.4077 11.7546 10.3976 11.7657C10.3874 11.7767 10.375 11.7855 10.3612 11.7916C10.3474 11.7976 10.3325 11.8006 10.3174 11.8006H5.9744C5.9493 11.7937 5.92752 11.7781 5.91308 11.7565C5.89864 11.7349 5.8925 11.7089 5.8958 11.6832C5.90596 11.5627 5.90596 11.4416 5.8958 11.3211H10.4255ZM13.6091 32.1234C13.6091 32.1519 13.5977 32.1793 13.5774 32.1995C13.5572 32.2197 13.5297 32.231 13.501 32.231H2.75152C2.72285 32.231 2.69536 32.2197 2.67509 32.1995C2.65482 32.1793 2.64344 32.1519 2.64344 32.1234V11.4777C2.64344 11.4491 2.65482 11.4218 2.67509 11.4016C2.69536 11.3814 2.72285 11.37 2.75152 11.37H3.07577C3.15966 11.4736 3.21093 11.5996 3.22316 11.7321C3.23858 12.4485 3.53524 13.1303 4.04953 13.6315C4.56383 14.1327 5.25483 14.4132 5.9744 14.4131H10.2781C10.6394 14.4131 10.9972 14.3422 11.331 14.2045C11.6648 14.0669 11.9681 13.865 12.2236 13.6106C12.479 13.3562 12.6817 13.0542 12.8199 12.7218C12.9582 12.3894 13.0294 12.0332 13.0294 11.6734C13.0459 11.5465 13.0859 11.4237 13.1473 11.3113H13.501C13.5297 11.3113 13.5572 11.3227 13.5774 11.3429C13.5977 11.363 13.6091 11.3904 13.6091 11.419V32.1234Z" fill="white"/>
</svg>
