<svg width="28" height="28" viewBox="0 0 28 28" fill="none" xmlns="http://www.w3.org/2000/svg">
<path fill-rule="evenodd" clip-rule="evenodd" d="M14 28C21.732 28 28 21.732 28 14C28 6.26801 21.732 0 14 0C6.26801 0 0 6.26801 0 14C0 21.732 6.26801 28 14 28ZM5.30012 12.9504C5.03774 13.0482 4.81922 13.1304 4.68763 13.3884C4.64783 13.4718 4.67057 13.6168 4.69454 13.676C4.81524 13.8737 4.98127 13.9227 5.19197 13.9849C5.20602 13.989 5.22027 13.9932 5.23472 13.9976C5.41811 14.0523 5.60149 14.1071 5.78485 14.1619C6.74099 14.4475 7.69692 14.733 8.65457 15.0139C8.72943 15.0291 8.80747 15.0161 8.87267 14.9777C10.9977 13.7057 13.08 12.4561 15.1853 11.1926C15.7394 10.8601 16.2952 10.5266 16.8537 10.1915C16.9634 10.1297 17.0774 10.075 17.1948 10.0278C17.2761 9.99431 17.393 9.95066 17.4791 10.0391C17.5453 10.1132 17.4584 10.2184 17.3809 10.2835C17.3702 10.2923 17.3588 10.3023 17.3475 10.3124C17.3437 10.3158 17.3399 10.3191 17.3362 10.3225C15.1789 12.1791 13.0239 14.0377 10.871 15.8982C10.8148 15.9499 10.7791 16.0189 10.7702 16.0931C10.7064 16.88 10.6483 17.6669 10.5902 18.4538C10.5811 18.5781 10.5719 18.7023 10.5627 18.8266C10.5613 18.8458 10.5597 18.8653 10.558 18.8849C10.5422 19.0771 10.5248 19.2877 10.6541 19.387C10.8332 19.4929 10.9567 19.3778 11.112 19.2329C11.1208 19.2248 11.1296 19.2165 11.1386 19.2082C11.7053 18.6867 12.273 18.1662 12.8416 17.6465C12.863 17.6269 12.8852 17.6087 12.9082 17.5898C12.9272 17.5742 12.9467 17.5582 12.9667 17.5405C12.9781 17.5483 12.9891 17.5558 12.9998 17.563C13.0403 17.5906 13.0759 17.6149 13.1113 17.6399C13.45 17.8775 13.7885 18.1155 14.1271 18.3535C14.8993 18.8965 15.6718 19.4396 16.4475 19.9782C16.5882 20.0722 16.7441 20.1433 16.9089 20.1887C17.2407 20.2846 17.5153 20.1735 17.6745 19.8769C17.7565 19.7212 17.8169 19.5559 17.854 19.3851C18.5962 16.0678 19.3345 12.7497 20.0688 9.43077C20.1399 9.1186 20.2122 8.80098 20.2211 8.48413C20.2349 7.99659 19.8942 7.72222 19.4149 7.78731C19.325 7.80174 19.2372 7.82579 19.1529 7.85902C15.5787 9.17135 12.0036 10.4838 8.42753 11.7964C8.15305 11.8974 7.87843 11.9983 7.60375 12.0991C6.83585 12.3811 6.06743 12.6633 5.30012 12.9504Z" fill="white"/>
</svg>
