<svg width="28" height="28" viewBox="0 0 28 28" fill="none" xmlns="http://www.w3.org/2000/svg">
<path fill-rule="evenodd" clip-rule="evenodd" d="M1.49944 22.5276L0 28C0.0788033 27.9818 0.142418 27.9679 0.198497 27.9557C0.243869 27.9457 0.284309 27.9369 0.323871 27.9278C2.59021 27.3304 4.8585 26.7399 7.12874 26.1562C7.27525 26.1199 7.42971 26.1338 7.56738 26.1956C10.23 27.5564 13.0446 28.0606 16.0055 27.6228C19.8319 27.0551 22.9566 25.2251 25.2046 22.0934C28.3344 17.7344 28.8746 12.9698 26.6302 8.11025C24.3295 3.12887 20.2574 0.432787 14.759 0.0358534C11.7236 -0.183044 8.89502 0.603527 6.37354 2.30947C2.5924 4.86765 0.492748 8.44954 0.147679 13.0011C-0.0562915 15.7009 0.540267 18.2518 1.85621 20.6312C1.91695 20.7576 1.93268 20.901 1.9008 21.0376C1.81433 21.4003 1.71362 21.7599 1.61292 22.1195C1.57484 22.2554 1.53674 22.3915 1.49944 22.5276ZM10.4496 8.24743C10.2291 7.69307 9.95011 7.47353 9.41788 7.3935C8.8963 7.32448 8.56404 7.37808 7.94741 7.83258C6.79324 8.92367 6.40623 10.235 6.75522 11.7476C7.00004 12.8086 7.58321 13.7102 8.22797 14.5833C10.2793 17.3609 12.8401 19.4712 16.3148 20.4059C17.2728 20.6643 18.2407 20.7569 19.1736 20.3802C20.825 19.7098 21.1482 18.6444 21.3573 17.8103C21.3763 17.7024 21.4105 17.3059 21.0721 17.0856C20.064 16.5929 19.0368 16.1267 18.0111 15.6634C17.7168 15.5305 17.4781 15.6105 17.2736 15.8741C17.0299 16.1876 16.7717 16.4913 16.5139 16.7946C16.3991 16.9296 16.2844 17.0645 16.1711 17.2001C15.9787 17.4307 15.7476 17.4718 15.467 17.3646C13.3092 16.5356 11.6548 15.1435 10.4747 13.2161C10.3166 12.9584 10.347 12.7521 10.5394 12.5237C10.7756 12.2435 10.9978 11.9519 11.22 11.6604C11.286 11.5739 11.3519 11.4873 11.4183 11.401C11.5985 11.1697 11.6023 10.9252 11.4829 10.6558L11.4552 10.5934C11.1101 9.81515 10.7636 9.03407 10.4496 8.24743Z" fill="white"/>
</svg>
