<svg width="28" height="28" viewBox="0 0 28 28" fill="none" xmlns="http://www.w3.org/2000/svg">
<path fill-rule="evenodd" clip-rule="evenodd" d="M14 28C21.732 28 28 21.732 28 14C28 6.26801 21.732 0 14 0C6.26801 0 0 6.26801 0 14C0 21.732 6.26801 28 14 28ZM19.8868 9.40757C20.9106 10.7196 21.4668 12.3361 21.467 14.0003V15.4003C21.467 15.7716 21.3195 16.1277 21.0569 16.3903C20.7944 16.6528 20.4383 16.8003 20.067 16.8003C19.6957 16.8003 19.3396 16.6528 19.077 16.3903C18.8145 16.1277 18.667 15.7716 18.667 15.4003V10.267H16.8003C16.0814 9.72782 15.222 9.4077 14.3256 9.3451C13.4291 9.2825 12.5336 9.48008 11.7467 9.9141C10.9598 10.3481 10.3149 11.0001 9.88957 11.7917C9.46425 12.5834 9.27654 13.481 9.349 14.3767C9.42147 15.2725 9.75103 16.1282 10.2981 16.8412C10.8451 17.5542 11.5864 18.094 12.4328 18.3959C13.2793 18.6978 14.1949 18.7489 15.0697 18.543C15.9444 18.3371 16.7411 17.883 17.3641 17.2353C17.7565 17.8135 18.324 18.2506 18.9833 18.4825C19.6426 18.7143 20.3588 18.7286 21.0268 18.5233C21.6948 18.3179 22.2793 17.9038 22.6945 17.3417C23.1097 16.7796 23.3338 16.0992 23.3337 15.4003V14.0003C23.3337 8.84552 19.1551 4.66699 14.0003 4.66699C8.84553 4.66699 4.66699 8.84552 4.66699 14.0003C4.66699 19.1551 8.84553 23.3336 14.0003 23.3336C15.8436 23.3366 17.6461 22.7911 19.1785 21.7666L18.1425 20.2135C16.7578 21.1368 15.1043 21.5709 13.4447 21.4471C11.7851 21.3232 10.2144 20.6485 8.98208 19.53C7.74975 18.4115 6.92643 16.9133 6.64285 15.2734C6.35927 13.6335 6.6317 11.9459 7.41686 10.4785C8.20202 9.01109 9.45492 7.84807 10.9766 7.17412C12.4983 6.50016 14.2015 6.35389 15.8158 6.75853C17.4301 7.16318 18.8629 8.09554 19.8868 9.40757ZM12.0204 12.0204C12.5455 11.4953 13.2577 11.2003 14.0003 11.2003C14.7429 11.2003 15.4551 11.4953 15.9802 12.0204C16.5053 12.5455 16.8003 13.2577 16.8003 14.0003C16.8003 14.7429 16.5053 15.4551 15.9802 15.9802C15.4551 16.5053 14.7429 16.8003 14.0003 16.8003C13.2577 16.8003 12.5455 16.5053 12.0204 15.9802C11.4953 15.4551 11.2003 14.7429 11.2003 14.0003C11.2003 13.2577 11.4953 12.5455 12.0204 12.0204Z" fill="white"/>
</svg>
