<svg width="29" height="24" viewBox="0 0 29 24" fill="none" xmlns="http://www.w3.org/2000/svg">
<path d="M25.3197 14.5758L25.0612 13.0512C25.4913 13.0625 25.9185 13.1238 26.3338 13.2336C26.5847 13.3001 26.8524 13.2665 27.078 13.14C27.3035 13.0135 27.4685 12.8046 27.5365 12.5592C27.6045 12.3138 27.5701 12.052 27.4408 11.8315C27.3114 11.6109 27.0978 11.4496 26.8469 11.3831C26.195 11.2117 25.523 11.1241 24.8479 11.1225L23.6886 0.788412C23.6757 0.678925 23.6418 0.572804 23.5886 0.475654C23.5905 0.462689 23.5905 0.449523 23.5886 0.436559C23.5349 0.34301 23.465 0.259245 23.3821 0.188958C23.2917 0.122452 23.1903 0.0717483 23.0822 0.0390948H23.0422C22.9598 0.0160898 22.8748 0.00296209 22.789 0H19.9839C19.8553 -1.87431e-09 19.7279 0.0247748 19.6091 0.0729099C19.4902 0.121045 19.3822 0.191598 19.2913 0.28054C19.2003 0.369482 19.1282 0.475072 19.079 0.59128C19.0297 0.707488 19.0044 0.83204 19.0044 0.957823C19.0044 1.08361 19.0297 1.20816 19.079 1.32437C19.1282 1.44057 19.2003 1.54616 19.2913 1.63511C19.3822 1.72405 19.4902 1.7946 19.6091 1.84274C19.7279 1.89087 19.8553 1.91565 19.9839 1.91565H21.8296L22.8957 11.4222C21.6355 11.7375 20.4767 12.3574 19.5255 13.225C18.5743 14.0925 17.8613 15.1799 17.4519 16.3872H8.01699C7.51395 15.6433 6.78553 15.0718 5.93378 14.753C5.08203 14.4341 4.14961 14.3837 3.26713 14.609C2.38465 14.8342 1.59633 15.3237 1.01259 16.009C0.428841 16.6943 0.0789227 17.5409 0.011842 18.4304C-0.0552388 19.3199 0.163878 20.2076 0.638504 20.9692C1.11313 21.7308 1.81949 22.3281 2.65863 22.6775C3.49777 23.0269 4.42765 23.1109 5.31803 22.9176C6.2084 22.7244 7.01466 22.2636 7.62387 21.5999H18.3314C18.4153 21.6001 18.4985 21.5869 18.578 21.5608C18.681 21.5289 18.7778 21.4804 18.8645 21.4174C18.9281 21.3716 18.9842 21.3167 19.0311 21.2545L19.0844 21.1633V21.1177V21.046L19.1243 20.9157C19.1212 20.8919 19.1212 20.8678 19.1243 20.844C19.1277 20.7963 19.1277 20.7484 19.1243 20.7007V20.6355C19.1302 20.5727 19.1302 20.5094 19.1243 20.4466C18.9625 19.9203 18.8794 19.3738 18.8778 18.8242C18.8778 18.6287 18.8778 18.4267 18.8778 18.2312C18.8778 18.1791 18.8778 18.1335 18.8778 18.0814C18.8778 18.0292 18.9178 17.7947 18.9444 17.6513C19.1642 16.6602 19.6507 15.7445 20.3535 14.9988C21.0563 14.2531 21.9501 13.7044 22.9423 13.4095L23.1022 14.8365C22.1033 15.208 21.2792 15.926 20.787 16.8536C20.2948 17.7812 20.1689 18.8536 20.4333 19.8661C20.6977 20.8787 21.334 21.7607 22.2208 22.3439C23.1075 22.9272 24.1828 23.1708 25.2415 23.0285C26.3002 22.8862 27.2684 22.3679 27.9613 21.5723C28.6543 20.7767 29.0236 19.7595 28.9988 18.7148C28.9741 17.67 28.557 16.6707 27.8271 15.9073C27.0972 15.144 26.3736 14.67 25.3093 14.5758H25.3197ZM24.808 16.3416C25.2837 16.3416 25.7487 16.4796 26.1443 16.7381C26.5399 16.9965 26.8482 17.3639 27.0302 17.7937C27.2123 18.2235 27.2599 18.6964 27.1671 19.1527C27.0743 19.609 26.8452 20.0281 26.5088 20.3571C26.1724 20.6861 25.7438 20.9101 25.2772 21.0008C24.8106 21.0916 24.327 21.045 23.8875 20.867C23.4479 20.689 23.0723 20.3875 22.808 20.0007C22.5437 19.6138 22.4026 19.1591 22.4026 18.6938C22.4026 18.07 22.656 17.4717 23.1071 17.0306C23.5582 16.5895 24.17 16.3416 24.808 16.3416ZM17.1188 19.5539C17.1155 19.5799 17.1155 19.6061 17.1188 19.6321H8.64998C8.64686 19.6193 8.64686 19.6059 8.64998 19.593C8.64998 19.4953 8.64998 19.391 8.69662 19.2933C8.74327 19.1956 8.69662 19.1956 8.69662 19.1499C8.69662 19.0001 8.69662 18.8502 8.69662 18.6938C8.69662 18.5375 8.69662 18.3941 8.69662 18.2508H17.0455C17.0455 18.4006 17.0455 18.557 17.0455 18.7069C17.0538 18.9903 17.0782 19.2731 17.1188 19.5539ZM6.58443 17.736C6.6299 17.8368 6.66559 17.9415 6.69103 18.0488C6.71177 18.0977 6.72957 18.1477 6.74434 18.1986C6.7789 18.3616 6.79676 18.5274 6.79765 18.6938C6.79567 18.8383 6.78006 18.9822 6.75101 19.1239C6.75101 19.163 6.75101 19.2021 6.75101 19.2477C6.72697 19.3453 6.69579 19.4411 6.65772 19.5344L6.61108 19.6582C6.55778 19.7559 6.50447 19.8602 6.4445 19.9514L6.40452 20.0231C6.10452 20.4552 5.66632 20.7778 5.15865 20.9401C4.65098 21.1025 4.10256 21.0955 3.59941 20.9202C3.09625 20.7449 2.66683 20.4112 2.37849 19.9716C2.09015 19.5319 1.95921 19.011 2.0062 18.4907C2.05319 17.9704 2.27545 17.4801 2.63814 17.0967C3.00082 16.7132 3.4834 16.4583 4.01018 16.372C4.53696 16.2856 5.07815 16.3727 5.54886 16.6196C6.01957 16.8665 6.39318 17.2591 6.61108 17.736H6.58443Z" fill="white"/>
</svg>
