<svg width="28" height="28" viewBox="0 0 28 28" fill="none" xmlns="http://www.w3.org/2000/svg">
<path d="M24.5572 0.000142415H8.83585C8.37967 -0.00398861 7.92717 0.0817896 7.50442 0.252537C7.08167 0.423285 6.69702 0.675628 6.37261 0.995034C6.04821 1.31444 5.79046 1.6946 5.61422 2.11362C5.43798 2.53264 5.34672 2.98224 5.3457 3.43652V5.1508C5.3457 5.45598 5.46745 5.74866 5.68415 5.96445C5.90085 6.18025 6.19476 6.30148 6.50122 6.30148C6.80769 6.30148 7.1016 6.18025 7.3183 5.96445C7.535 5.74866 7.65674 5.45598 7.65674 5.1508V3.43652C7.65674 3.1355 7.77683 2.8468 7.99058 2.63394C8.20434 2.42108 8.49425 2.3015 8.79654 2.3015H24.5179C24.6676 2.3015 24.8158 2.33086 24.9541 2.3879C25.0924 2.44494 25.218 2.52854 25.3239 2.63394C25.4297 2.73934 25.5137 2.86446 25.571 3.00217C25.6282 3.13988 25.6577 3.28747 25.6577 3.43652V24.5714C25.6577 24.8725 25.5376 25.1612 25.3239 25.374C25.1101 25.5869 24.8202 25.7065 24.5179 25.7065H14.81C14.521 25.7303 14.2515 25.8614 14.0551 26.0738C13.8587 26.2863 13.7497 26.5645 13.7497 26.8532C13.7497 27.142 13.8587 27.4202 14.0551 27.6326C14.2515 27.8451 14.521 27.9762 14.81 28H24.5572C25.0094 28 25.4571 27.9113 25.8748 27.739C26.2925 27.5667 26.6721 27.3142 26.9918 26.9958C27.3115 26.6774 27.5651 26.2995 27.7381 25.8835C27.9111 25.4675 28.0002 25.0217 28.0002 24.5714V3.43652C28.0002 2.52649 27.6377 1.65362 26.9923 1.0094C26.3468 0.365177 25.4711 0.00221538 24.5572 0.000142415Z" fill="white"/>
<path d="M10.8008 6.95117H2.20122C1.90914 6.95218 1.62017 7.01086 1.35102 7.12381C1.08187 7.23677 0.83789 7.40176 0.633198 7.60923C0.428505 7.81671 0.267166 8.06255 0.158516 8.33252C0.0498665 8.6025 -0.00393539 8.89126 0.000224008 9.18208V25.6986C0.00229544 26.2793 0.23485 26.8356 0.647168 27.2462C1.05949 27.6568 1.61811 27.8883 2.20122 27.8904H10.8008C11.3839 27.8883 11.9425 27.6568 12.3549 27.2462C12.7672 26.8356 12.9997 26.2793 13.0018 25.6986V9.18208C13.006 8.89126 12.9522 8.6025 12.8435 8.33252C12.7349 8.06255 12.5735 7.81671 12.3688 7.60923C12.1641 7.40176 11.9202 7.23677 11.651 7.12381C11.3819 7.01086 11.0929 6.95218 10.8008 6.95117ZM8.34041 9.05684C8.33228 9.15321 8.33228 9.25009 8.34041 9.34646C8.34151 9.35841 8.34009 9.37045 8.33623 9.38182C8.33238 9.39319 8.32619 9.40363 8.31804 9.41247C8.3099 9.42132 8.3 9.42837 8.28896 9.43318C8.27792 9.43799 8.26599 9.44045 8.25395 9.4404H4.77952C4.75944 9.43491 4.74202 9.42238 4.73046 9.40512C4.71891 9.38787 4.714 9.36704 4.71664 9.34646C4.72477 9.25009 4.72477 9.15321 4.71664 9.05684H8.34041ZM10.8873 25.6986C10.8873 25.7215 10.8782 25.7434 10.862 25.7595C10.8457 25.7757 10.8237 25.7847 10.8008 25.7847H2.20122C2.17828 25.7847 2.15629 25.7757 2.14007 25.7595C2.12386 25.7434 2.11475 25.7215 2.11475 25.6986V9.18208C2.11475 9.15924 2.12386 9.13734 2.14007 9.12119C2.15629 9.10505 2.17828 9.09598 2.20122 9.09598H2.46062C2.52773 9.17884 2.56875 9.2796 2.57853 9.3856C2.59087 9.95872 2.82819 10.5042 3.23963 10.9051C3.65106 11.3061 4.20386 11.5305 4.77952 11.5304H8.2225C8.51154 11.5304 8.79775 11.4737 9.06479 11.3636C9.33182 11.2534 9.57446 11.092 9.77884 10.8885C9.98322 10.6849 10.1453 10.4433 10.256 10.1774C10.3666 9.91147 10.4235 9.62646 10.4235 9.33864C10.4367 9.23713 10.4687 9.13893 10.5178 9.04901H10.8008C10.8237 9.04901 10.8457 9.05808 10.862 9.07423C10.8782 9.09038 10.8873 9.11228 10.8873 9.13511V25.6986Z" fill="white"/>
</svg>
