<svg width="16" height="16" viewBox="0 0 16 16" fill="none" xmlns="http://www.w3.org/2000/svg">
<path d="M9.51509 10.8142C7.5642 9.98802 6.0128 8.43302 5.19114 6.48022L7.46937 4.19797L3.27475 0L1.14997 2.12411C0.78143 2.49476 0.490049 2.9348 0.292682 3.41878C0.095315 3.90277 -0.00411972 4.42109 0.000130731 4.94375C0.000130731 9.8004 6.19959 15.9999 11.0562 15.9999C11.5788 16.0043 12.0971 15.9049 12.581 15.7075C13.0649 15.5102 13.5048 15.2187 13.8752 14.85L16 12.7252L11.802 8.52727L9.51509 10.8142ZM12.9284 13.9025C12.682 14.1463 12.3896 14.3388 12.0682 14.4688C11.7468 14.5987 11.4029 14.6636 11.0562 14.6597C6.87971 14.6597 1.34027 9.12028 1.34027 4.94375C1.33632 4.59722 1.40122 4.25334 1.53119 3.93208C1.66117 3.61082 1.85364 3.31856 2.09744 3.07226L3.27475 1.89495L5.57777 4.19797L3.61112 6.16461L3.77529 6.57604C4.25857 7.8688 5.01409 9.04259 5.99063 10.0179C6.96718 10.9931 8.14195 11.7471 9.43535 12.2287L9.84141 12.3835L11.802 10.4222L14.105 12.7252L12.9284 13.9025Z" fill="white"/>
</svg>
