<svg width="32" height="23" viewBox="0 0 32 23" fill="none" xmlns="http://www.w3.org/2000/svg">
<path fill-rule="evenodd" clip-rule="evenodd" d="M29.9253 2.53316C29.9066 1.85504 29.6241 1.21097 29.1378 0.738022C28.6514 0.265073 27.9997 0.000582524 27.3214 0.000839082H4.60213C3.91256 -0.0166604 3.24423 0.240162 2.74383 0.714932C2.24343 1.1897 1.95185 1.84362 1.93311 2.53316V16.998C1.95187 17.684 2.24074 18.335 2.7369 18.8092C3.23306 19.2834 3.89638 19.5425 4.5826 19.5303H27.3214C27.9997 19.5305 28.6514 19.266 29.1378 18.7931C29.6241 18.3201 29.9066 17.6761 29.9253 16.998V2.53316ZM27.6534 2.53316V16.998C27.6507 17.0877 27.6156 17.1734 27.5546 17.2393C27.4935 17.3051 27.4107 17.3466 27.3214 17.356H4.60213C4.5534 17.3569 4.50498 17.3481 4.45963 17.3303C4.41428 17.3124 4.37289 17.2858 4.33783 17.2519C4.30277 17.2181 4.27472 17.1777 4.25528 17.133C4.23585 17.0883 4.22541 17.0402 4.22456 16.9914V2.53316C4.22539 2.48472 4.23587 2.43693 4.25539 2.39259C4.2749 2.34825 4.30306 2.30824 4.33821 2.27491C4.37336 2.24157 4.41481 2.21558 4.46012 2.19844C4.50544 2.18131 4.55371 2.17338 4.60213 2.17512H27.3214C27.4147 2.17844 27.5031 2.21742 27.5685 2.28404C27.6339 2.35065 27.6713 2.43982 27.6729 2.53316H27.6534Z" fill="white"/>
<path fill-rule="evenodd" clip-rule="evenodd" d="M30.7849 20.7734H1.11318C0.817947 20.7734 0.534803 20.8907 0.326042 21.0995C0.117281 21.3082 0 21.5914 0 21.8866C0 22.1818 0.117281 22.465 0.326042 22.6738C0.534803 22.8825 0.817947 22.9998 1.11318 22.9998H30.7849C31.0801 22.9998 31.3633 22.8825 31.572 22.6738C31.7808 22.465 31.8981 22.1818 31.8981 21.8866C31.8981 21.5914 31.7808 21.3082 31.572 21.0995C31.3633 20.8907 31.0801 20.7734 30.7849 20.7734Z" fill="white"/>
</svg>
