<svg width="28" height="28" viewBox="0 0 28 28" fill="none" xmlns="http://www.w3.org/2000/svg">
<path d="M27.5025 15.8855L26.4555 14.3151C26.3834 14.2117 26.3449 14.0901 26.3449 13.9656C26.3449 13.8412 26.3834 13.7196 26.4555 13.6162L27.5025 12.0457C27.7426 11.6906 27.8973 11.2886 27.9553 10.8689C28.0133 10.4492 27.9732 10.0223 27.8379 9.61938C27.7022 9.21681 27.4735 8.84886 27.169 8.54294C26.8645 8.23703 26.492 8.00105 26.0792 7.8526L24.2878 7.193C24.1651 7.14861 24.0586 7.07065 23.9816 6.96876C23.9045 6.86688 23.8603 6.74555 23.8543 6.61978L23.7561 4.78233C23.7349 4.3599 23.6151 3.94745 23.4057 3.57535C23.1963 3.20325 22.9026 2.881 22.5462 2.63234C22.1899 2.38367 21.7799 2.21494 21.3466 2.13857C20.9133 2.0622 20.4677 2.08014 20.0425 2.19106L18.1857 2.67005C18.06 2.70101 17.9278 2.69675 17.8045 2.65778C17.6813 2.61882 17.5723 2.54678 17.4904 2.45019L16.2798 1.01321C15.9991 0.691062 15.6472 0.433 15.2496 0.257781C14.852 0.0825624 14.4187 -0.00541042 13.9813 0.000257478C13.5405 -0.000656841 13.1052 0.0934098 12.7074 0.275521C12.3096 0.457632 11.9594 0.723142 11.6827 1.05247L10.4967 2.48945C10.4129 2.58594 10.3024 2.65776 10.1779 2.69666C10.0535 2.73555 9.92013 2.73994 9.79321 2.70932L7.93639 2.23032C7.51153 2.11872 7.06597 2.10029 6.63269 2.17641C6.19941 2.25253 5.78951 2.42124 5.43336 2.67005C5.07793 2.91999 4.7849 3.24273 4.57551 3.61487C4.36611 3.98701 4.24562 4.39921 4.22276 4.82159L4.1246 6.65904C4.11863 6.78481 4.07438 6.90614 3.99733 7.00803C3.92028 7.10991 3.81379 7.18787 3.69106 7.23226L1.89969 7.89186C1.48723 8.03928 1.11519 8.27502 0.811875 8.58117C0.508554 8.88731 0.281933 9.2558 0.149212 9.65864C0.0103541 10.0607 -0.0323475 10.4876 0.0242978 10.9077C0.0809432 11.3277 0.235474 11.7302 0.476399 12.085L1.52341 13.6555C1.59551 13.7589 1.634 13.8805 1.634 14.0049C1.634 14.1293 1.59551 14.2509 1.52341 14.3543L0.476399 15.9248C0.237261 16.2789 0.0837489 16.6799 0.0271311 17.0985C-0.0294866 17.517 0.0122321 17.9423 0.149212 18.3433C0.281933 18.7462 0.508554 19.1147 0.811875 19.4208C1.11519 19.7269 1.48723 19.9627 1.89969 20.1101L3.69106 20.7776C3.81314 20.8205 3.91935 20.8971 3.99644 20.9976C4.07353 21.0982 4.11811 21.2182 4.1246 21.3429L4.22276 23.1882C4.24553 23.6101 4.36625 24.0218 4.57608 24.3931C4.78591 24.7644 5.07954 25.0861 5.43551 25.3345C5.79148 25.5828 6.20078 25.7517 6.63348 25.8287C7.06617 25.9057 7.51133 25.8889 7.93639 25.7795L9.79321 25.3005C9.91922 25.266 10.053 25.2677 10.178 25.3054C10.303 25.3431 10.4138 25.4151 10.4967 25.5125L11.6991 26.9495C11.9767 27.2777 12.3271 27.5422 12.7248 27.724C13.1224 27.9057 13.5572 28 13.9976 28C14.438 28 14.8729 27.9057 15.2705 27.724C15.6681 27.5422 16.0185 27.2777 16.2962 26.9495L17.5068 25.5125C17.5877 25.4149 17.697 25.3426 17.8208 25.3049C17.9446 25.2671 18.0773 25.2656 18.2021 25.3005L20.0589 25.7795C20.4839 25.8889 20.9291 25.9057 21.3618 25.8287C21.7945 25.7517 22.2038 25.5828 22.5598 25.3345C22.9157 25.0861 23.2094 24.7644 23.4192 24.3931C23.629 24.0218 23.7497 23.6101 23.7725 23.1882L23.8707 21.3429C23.8772 21.2182 23.9217 21.0982 23.9988 20.9976C24.0759 20.8971 24.1821 20.8205 24.3042 20.7776L26.0956 20.1101C26.5079 19.9615 26.8801 19.7258 27.1847 19.4204C27.4892 19.115 27.7183 18.7477 27.855 18.3458C27.9917 17.9439 28.0324 17.5176 27.9743 17.0985C27.9161 16.6795 27.7604 16.2783 27.5189 15.9248L27.5025 15.8855ZM2.37412 17.0791L3.42114 15.5086C3.73336 15.0484 3.89957 14.511 3.89957 13.9617C3.89957 13.4125 3.73336 12.8751 3.42114 12.4148L2.37412 10.8443C2.3183 10.7645 2.28259 10.6732 2.26981 10.5778C2.25704 10.4824 2.26754 10.3855 2.30049 10.2947C2.32893 10.2023 2.37914 10.1174 2.44723 10.0466C2.51531 9.97577 2.59945 9.92095 2.69313 9.88636L4.49269 9.22676C5.02318 9.03805 5.48581 8.70664 5.82526 8.27216C6.1647 7.83769 6.36658 7.31855 6.40676 6.77683L6.51311 4.93153C6.51759 4.83782 6.54362 4.74622 6.58932 4.6633C6.63502 4.58038 6.69925 4.50819 6.77743 4.4519C6.8556 4.39562 6.94579 4.35663 7.04151 4.33773C7.13723 4.31884 7.23612 4.3205 7.33109 4.3426L9.1879 4.82159C9.73967 4.96404 10.3227 4.94932 10.8659 4.77922C11.4091 4.60912 11.889 4.29099 12.2472 3.86361L13.4578 2.42663C13.5216 2.3528 13.6016 2.2934 13.6921 2.25268C13.7826 2.21196 13.8813 2.19092 13.9813 2.19106C14.0812 2.19092 14.18 2.21196 14.2705 2.25268C14.3609 2.2934 14.441 2.3528 14.5048 2.42663L15.7154 3.86361C16.0742 4.2902 16.5542 4.60775 17.0971 4.77778C17.6401 4.94781 18.2228 4.96303 18.7746 4.82159L20.6315 4.3426C20.7262 4.3233 20.8241 4.32368 20.9187 4.34371C21.0133 4.36375 21.1023 4.40297 21.1798 4.45875C21.2572 4.51453 21.3214 4.58558 21.3679 4.66712C21.4144 4.74867 21.4422 4.83882 21.4495 4.93153L21.5476 6.77683C21.5766 7.32406 21.7706 7.85142 22.1061 8.29474C22.4415 8.73806 22.904 9.07823 23.4371 9.27387L25.2367 9.93347C25.3304 9.96806 25.4145 10.0229 25.4826 10.0937C25.5507 10.1645 25.6009 10.2494 25.6293 10.3418C25.6623 10.4326 25.6728 10.5296 25.66 10.625C25.6472 10.7203 25.6115 10.8116 25.5557 10.8915L24.5087 12.4619C24.1965 12.9222 24.0303 13.4596 24.0303 14.0088C24.0303 14.5581 24.1965 15.0955 24.5087 15.5557L25.5557 17.1262C25.6115 17.2061 25.6472 17.2973 25.66 17.3927C25.6728 17.4881 25.6623 17.5851 25.6293 17.6759C25.5993 17.7666 25.5484 17.8496 25.4804 17.919C25.4125 17.9883 25.3292 18.042 25.2367 18.0763L23.4371 18.7359C22.9155 18.935 22.4638 19.2727 22.135 19.7094C21.8061 20.1461 21.6137 20.6637 21.5803 21.2016L21.4822 23.039C21.476 23.1324 21.4491 23.2235 21.403 23.3059C21.357 23.3884 21.293 23.4604 21.2154 23.517C21.1378 23.5737 21.0484 23.6136 20.9533 23.6341C20.8582 23.6546 20.7595 23.6552 20.6642 23.6358L18.8074 23.1568C18.2565 23.0114 17.6733 23.0239 17.1297 23.1928C16.5862 23.3616 16.1059 23.6794 15.7481 24.1069L14.5375 25.5439C14.4741 25.6188 14.3944 25.6794 14.3039 25.7214C14.2134 25.7635 14.1145 25.786 14.014 25.7873C13.9135 25.786 13.8145 25.7635 13.7241 25.7214C13.6336 25.6794 13.5539 25.6188 13.4905 25.5439L12.2799 24.1069C12.0048 23.7778 11.6562 23.5123 11.2597 23.3301C10.8632 23.148 10.4291 23.0539 9.98953 23.0547C9.72946 23.0533 9.47053 23.0877 9.22062 23.1568L7.3638 23.6358C7.26626 23.6585 7.16482 23.6612 7.06613 23.6436C6.96745 23.626 6.87376 23.5885 6.79122 23.5337C6.71147 23.4768 6.64589 23.4036 6.5992 23.3194C6.55252 23.2353 6.5259 23.1422 6.52128 23.0469L6.40676 21.2016C6.37832 20.6532 6.18463 20.1246 5.8492 19.68C5.51377 19.2353 5.05104 18.8937 4.51723 18.6967L2.71767 18.0371C2.62518 18.0028 2.54189 17.949 2.47394 17.8797C2.40598 17.8104 2.35509 17.7273 2.32503 17.6366C2.28715 17.5465 2.27186 17.4491 2.28039 17.3522C2.28891 17.2554 2.32102 17.1618 2.37412 17.0791Z" fill="white"/>
<path d="M8.44382 19.2067C8.66211 19.4126 8.95577 19.5282 9.2618 19.5287C9.41363 19.5302 9.56423 19.5024 9.70472 19.4471C9.84521 19.3919 9.97274 19.3101 10.0798 19.2067L18.8322 10.8047C18.942 10.7029 19.0294 10.5809 19.0891 10.446C19.1487 10.3111 19.1794 10.1661 19.1794 10.0195C19.1794 9.87293 19.1487 9.72786 19.0891 9.59295C19.0294 9.45805 18.942 9.33605 18.8322 9.23426C18.7256 9.12979 18.5983 9.0468 18.4578 8.99014C18.3174 8.93348 18.1666 8.9043 18.0142 8.9043C17.8618 8.9043 17.711 8.93348 17.5706 8.99014C17.4301 9.0468 17.3028 9.12979 17.1962 9.23426L8.44382 17.6363C8.335 17.7386 8.24853 17.8608 8.18951 17.9956C8.13049 18.1305 8.1001 18.2752 8.1001 18.4215C8.1001 18.5677 8.13049 18.7125 8.18951 18.8474C8.24853 18.9822 8.335 19.1044 8.44382 19.2067Z" fill="white"/>
<path d="M10.1863 12.9255C10.7373 12.9255 11.2658 12.7154 11.6554 12.3413C12.0451 11.9673 12.264 11.46 12.264 10.931C12.2665 10.6697 12.2142 10.4106 12.1102 10.1692C12.0062 9.92768 11.8526 9.70877 11.6587 9.52545C11.4176 9.29249 11.1204 9.12026 10.7934 9.02406C10.4663 8.92785 10.1196 8.91064 9.78399 8.97395C9.44837 9.03726 9.13422 9.17914 8.86943 9.38698C8.60464 9.59483 8.3974 9.86222 8.2661 10.1654C8.13481 10.4686 8.08352 10.7982 8.11679 11.125C8.15006 11.4518 8.26685 11.7657 8.45682 12.0387C8.64678 12.3118 8.90404 12.5356 9.20574 12.6903C9.50744 12.845 9.84426 12.9258 10.1863 12.9255Z" fill="white"/>
<path d="M17.0406 15.54C16.6296 15.54 16.2279 15.657 15.8862 15.8762C15.5446 16.0953 15.2783 16.4068 15.121 16.7713C14.9638 17.1357 14.9226 17.5367 15.0028 17.9236C15.083 18.3105 15.2809 18.6659 15.5714 18.9449C15.862 19.2238 16.2322 19.4137 16.6352 19.4907C17.0382 19.5677 17.456 19.5282 17.8356 19.3772C18.2153 19.2262 18.5398 18.9706 18.7681 18.6426C18.9964 18.3146 19.1182 17.929 19.1182 17.5345C19.1182 17.2726 19.0645 17.0133 18.9601 16.7713C18.8557 16.5293 18.7026 16.3094 18.5097 16.1242C18.3168 15.939 18.0877 15.7921 17.8356 15.6919C17.5836 15.5916 17.3134 15.54 17.0406 15.54Z" fill="white"/>
</svg>
