<svg width="17" height="16" viewBox="0 0 17 16" fill="none" xmlns="http://www.w3.org/2000/svg">
<path d="M12.3943 0C11.597 0.0125157 10.8171 0.237133 10.1333 0.65117C9.44954 1.06521 8.88614 1.654 8.5 2.35809C8.11386 1.654 7.55046 1.06521 6.8667 0.65117C6.18294 0.237133 5.40303 0.0125157 4.60574 0C3.33475 0.05573 2.13728 0.616858 1.27493 1.56079C0.41258 2.50473 -0.0445429 3.75474 0.00342773 5.03774C0.00342773 9.87897 7.7608 15.4705 8.09075 15.7077L8.5 16L8.90925 15.7077C9.2392 15.4719 16.9966 9.87897 16.9966 5.03774C17.0445 3.75474 16.5874 2.50473 15.7251 1.56079C14.8627 0.616858 13.6652 0.05573 12.3943 0ZM8.5 14.2407C6.19672 12.5043 1.41952 8.23831 1.41952 5.03774C1.37112 4.1336 1.67893 3.24683 2.27581 2.57082C2.87269 1.89481 3.71022 1.48442 4.60574 1.42915C5.50125 1.48442 6.33878 1.89481 6.93567 2.57082C7.53255 3.24683 7.84035 4.1336 7.79195 5.03774H9.20805C9.15965 4.1336 9.46745 3.24683 10.0643 2.57082C10.6612 1.89481 11.4987 1.48442 12.3943 1.42915C13.2898 1.48442 14.1273 1.89481 14.7242 2.57082C15.3211 3.24683 15.6289 4.1336 15.5805 5.03774C15.5805 8.23974 10.8033 12.5043 8.5 14.2407Z" fill="white"/>
</svg>
