<svg width="32" height="28" viewBox="0 0 32 28" fill="none" xmlns="http://www.w3.org/2000/svg">
<path d="M31.3645 0.68C30.9295 0.248241 30.3476 0.00460848 29.7406 0H2.28293C1.6786 0.00666176 1.09994 0.250144 0.66685 0.68C0.454037 0.897499 0.285548 1.1558 0.1711 1.44002C0.0566524 1.72424 -0.00148336 2.02876 2.87569e-05 2.336V21C2.52021e-05 21.6182 0.240287 22.2111 0.668191 22.649C1.09609 23.0868 1.67674 23.3339 2.28293 23.336H14.835V25.664H5.71906C5.42385 25.6713 5.14279 25.7945 4.93456 26.008C4.77643 26.1699 4.66833 26.3755 4.62364 26.5994C4.57896 26.8233 4.59964 27.0556 4.68314 27.2676C4.76664 27.4796 4.90929 27.662 5.09342 27.7922C5.27755 27.9224 5.49507 27.9946 5.71906 28H26.3123C26.4588 27.9981 26.6035 27.9667 26.7381 27.9077C26.8728 27.8487 26.9946 27.7631 27.0968 27.656C27.2549 27.4941 27.363 27.2885 27.4077 27.0646C27.4524 26.8408 27.4317 26.6084 27.3482 26.3964C27.2647 26.1844 27.1221 26.002 26.9379 25.8718C26.7538 25.7416 26.5363 25.6694 26.3123 25.664H17.1571V23.336H29.7092C30.3167 23.336 30.8994 23.0899 31.329 22.6518C31.7586 22.2137 32 21.6195 32 21V2.336C32.0039 1.72139 31.7764 1.12866 31.3645 0.68ZM29.7406 21H2.28293V2.336H29.7406V21Z" fill="white"/>
<path d="M4.7072 8.20005C4.91938 8.20005 5.12583 8.12988 5.29558 8.00005L8.43359 5.60005C8.64166 5.44092 8.7792 5.20403 8.81598 4.94147C8.85276 4.67892 8.78577 4.41223 8.62972 4.20005C8.47367 3.98788 8.24136 3.84761 7.9839 3.8101C7.72643 3.7726 7.4649 3.84092 7.25684 4.00005L4.11882 6.40005C3.95417 6.52598 3.83254 6.70155 3.77117 6.90189C3.7098 7.10222 3.7118 7.31717 3.77688 7.51628C3.84197 7.71539 3.96684 7.88857 4.13381 8.01129C4.30078 8.13402 4.50138 8.20005 4.7072 8.20005Z" fill="white"/>
<path d="M3.91474 11.784C4.00352 11.9121 4.12105 12.0167 4.25752 12.089C4.39398 12.1614 4.54543 12.1995 4.69924 12.2C4.90517 12.1989 5.10554 12.1318 5.27193 12.008L13.9015 5.60802C14.0222 5.53848 14.1271 5.44362 14.2093 5.3297C14.2914 5.21578 14.3489 5.08539 14.378 4.94714C14.4071 4.80889 14.4071 4.66592 14.378 4.52766C14.349 4.3894 14.2915 4.259 14.2094 4.14507C14.1272 4.03113 14.0224 3.93625 13.9017 3.86669C13.7809 3.79713 13.6471 3.75446 13.509 3.74151C13.371 3.72856 13.2318 3.74561 13.1006 3.79155C12.9695 3.83749 12.8494 3.91127 12.7483 4.00802L4.11872 10.408C3.91446 10.5642 3.77858 10.796 3.74042 11.0534C3.70226 11.3108 3.76487 11.5732 3.91474 11.784Z" fill="white"/>
</svg>
