<svg width="23" height="23" viewBox="0 0 23 23" fill="none" xmlns="http://www.w3.org/2000/svg">
<path d="M15.1583 4.5352C15.1566 4.29543 15.0616 4.06606 14.8941 3.89711C14.7266 3.72817 14.5001 3.63336 14.264 3.63337H10.6868C10.5643 3.62279 10.441 3.63816 10.3246 3.67852C10.2083 3.71887 10.1014 3.78332 10.0109 3.8678C9.92035 3.95227 9.84806 4.05492 9.79862 4.16925C9.74917 4.28358 9.72363 4.40709 9.72363 4.53196C9.72363 4.65683 9.74917 4.78034 9.79862 4.89467C9.84806 5.009 9.92035 5.11165 10.0109 5.19612C10.1014 5.2806 10.2083 5.34505 10.3246 5.38541C10.441 5.42576 10.5643 5.44113 10.6868 5.43055H14.2576C14.3747 5.43226 14.4911 5.41042 14.5998 5.36627C14.7086 5.32212 14.8077 5.25655 14.8915 5.17332C14.9752 5.0901 15.0419 4.99086 15.0877 4.88135C15.1335 4.77183 15.1575 4.65419 15.1583 4.5352Z" fill="white"/>
<path d="M9.47942 9.73841C10.351 9.75368 11.1879 10.0877 11.8365 10.6792C11.9244 10.761 12.0275 10.8242 12.1397 10.865C12.252 10.9058 12.3711 10.9234 12.4901 10.9167C12.6092 10.9101 12.7257 10.8793 12.8328 10.8263C12.94 10.7732 13.0356 10.6989 13.1141 10.6078C13.196 10.519 13.2591 10.4142 13.2998 10.2998C13.3404 10.1853 13.3577 10.0637 13.3505 9.94226C13.3434 9.82083 13.3119 9.70216 13.2581 9.59349C13.2043 9.48482 13.1292 9.38843 13.0375 9.3102C12.2738 8.60966 11.3267 8.14874 10.3107 7.98314C9.29464 7.81755 8.25312 7.95437 7.312 8.37707C6.37088 8.79977 5.57043 9.49026 5.00737 10.3651C4.44432 11.2399 4.14277 12.2617 4.13916 13.3068C4.14259 14.4383 4.49682 15.5399 5.15155 16.4553C5.80629 17.3706 6.72828 18.0533 7.78664 18.4064C7.87674 18.4398 7.97178 18.4574 8.06769 18.4583C8.25502 18.4589 8.4378 18.3997 8.59024 18.2891C8.74267 18.1785 8.85707 18.0221 8.91728 17.8419C8.95441 17.731 8.96957 17.6137 8.96189 17.4968C8.95422 17.3799 8.92387 17.2656 8.87257 17.1607C8.82169 17.0529 8.74948 16.957 8.66046 16.8788C8.57143 16.8007 8.4675 16.742 8.35516 16.7065C7.55534 16.4378 6.8764 15.8877 6.44081 15.1553C6.00523 14.4229 5.84168 13.5565 5.97968 12.7124C6.11767 11.8684 6.54812 11.1022 7.19337 10.5521C7.83862 10.002 8.65619 9.70419 9.49858 9.71246L9.47942 9.73841Z" fill="white"/>
<path d="M8.85358 21.1834H5.37219C4.90578 21.1859 4.44344 21.0952 4.01157 20.9162C3.5797 20.7373 3.18675 20.4738 2.85516 20.1406C2.52358 19.8074 2.25986 19.4112 2.07905 18.9745C1.89824 18.5378 1.80388 18.0692 1.80137 17.5955V3.67872C1.80137 3.17739 1.99701 2.6965 2.34544 2.3414C2.69386 1.9863 3.16666 1.78594 3.66024 1.78423H15.1584C15.4076 1.77729 15.6557 1.82116 15.8879 1.91326C16.1201 2.00536 16.3319 2.14381 16.5105 2.32042C16.6892 2.49704 16.8311 2.70824 16.9281 2.94154C17.025 3.17484 17.0749 3.42551 17.0748 3.67872V11.3086C17.0748 11.5495 17.169 11.7806 17.3367 11.9509C17.5044 12.1212 17.7319 12.2169 17.9691 12.2169C18.2062 12.2169 18.4337 12.1212 18.6014 11.9509C18.7691 11.7806 18.8634 11.5495 18.8634 11.3086V3.67872C18.8549 2.69785 18.4645 1.76026 17.7774 1.07092C17.0903 0.381577 16.1625 -0.00344397 15.1967 2.32155e-05H3.66024C2.69508 -0.00343444 1.76791 0.381793 1.08184 1.07132C0.395777 1.76084 0.0067553 2.69844 0 3.67872V17.5955C0.0101322 19.0307 0.579863 20.4032 1.5844 21.4126C2.58894 22.4219 3.9464 22.9857 5.35942 22.9805H8.84081C8.96331 22.9911 9.08664 22.9758 9.20299 22.9354C9.31934 22.8951 9.42617 22.8306 9.51671 22.7461C9.60725 22.6616 9.67953 22.559 9.72898 22.4447C9.77843 22.3303 9.80397 22.2068 9.80397 22.082C9.80397 21.9571 9.77843 21.8336 9.72898 21.7192C9.67953 21.6049 9.60725 21.5023 9.51671 21.4178C9.42617 21.3333 9.31934 21.2689 9.20299 21.2285C9.08664 21.1882 8.96331 21.1728 8.84081 21.1834H8.85358Z" fill="white"/>
<path d="M22.4594 14.9934C22.3251 14.8428 22.1727 14.7098 22.0058 14.5977L22.7724 13.7348C22.9181 13.554 22.9897 13.3231 22.9722 13.0902C22.9546 12.8572 22.8494 12.64 22.6783 12.4838C22.5073 12.3276 22.2835 12.2444 22.0536 12.2514C21.8237 12.2584 21.6052 12.3552 21.4437 12.5215L19.9298 14.2279H13.9507L12.4368 12.5215C12.3564 12.4296 12.2582 12.3556 12.1482 12.3043C12.0383 12.2529 11.919 12.2252 11.798 12.2231C11.6816 12.2164 11.565 12.2337 11.4552 12.2738C11.3455 12.314 11.2448 12.3761 11.1592 12.4566C11.0688 12.5383 10.9959 12.6381 10.9453 12.7497C10.8948 12.8614 10.8675 12.9825 10.8654 13.1054C10.8577 13.2238 10.8742 13.3425 10.9138 13.4542C10.9534 13.5658 11.0152 13.668 11.0954 13.7542L11.8555 14.6171C11.6894 14.7277 11.539 14.8609 11.4084 15.0129C11.1983 15.2554 11.0413 15.5404 10.9477 15.8491C10.8541 16.1578 10.8261 16.4831 10.8654 16.8036L11.3062 20.2357C11.4052 20.9995 11.7739 21.7007 12.3438 22.2091C12.9136 22.7175 13.6458 22.9984 14.4043 22.9996H19.4379C20.1975 23 20.9312 22.7197 21.5024 22.2112C22.0736 21.7027 22.4432 21.0006 22.5424 20.2357L22.9768 16.8036C23.0223 16.4818 22.9998 16.1539 22.9105 15.8418C22.8213 15.5296 22.6675 15.2404 22.4594 14.9934ZM20.7857 19.9892C20.7423 20.3154 20.5836 20.6144 20.3391 20.8305C20.0946 21.0465 19.7811 21.1649 19.4571 21.1635H14.4234C14.0997 21.1636 13.787 21.0447 13.5428 20.8289C13.2986 20.613 13.1395 20.3148 13.0948 19.9892L12.6604 16.5506C12.6529 16.4867 12.6588 16.4219 12.6775 16.3605C12.6962 16.299 12.7273 16.2422 12.769 16.1937C12.8107 16.1463 12.8619 16.1085 12.9192 16.0827C12.9765 16.057 13.0385 16.044 13.1011 16.0445H20.7666C20.8303 16.043 20.8935 16.0556 20.952 16.0814C21.0104 16.1071 21.0627 16.1455 21.1051 16.1937C21.1456 16.2427 21.1756 16.2998 21.1932 16.3612C21.2108 16.4226 21.2156 16.4871 21.2073 16.5506L20.7857 19.9892Z" fill="white"/>
</svg>
