<svg width="16" height="16" viewBox="0 0 16 16" fill="none" xmlns="http://www.w3.org/2000/svg">
<path d="M16 2H2.828L2.8 1.766C2.7427 1.27961 2.50892 0.831155 2.14299 0.505652C1.77706 0.180149 1.30442 0.000227862 0.814667 0L0 0V1.33333H0.814667C0.977956 1.33335 1.13556 1.3933 1.25758 1.50181C1.3796 1.61032 1.45756 1.75983 1.47667 1.922L2.53333 10.9007C2.59063 11.3871 2.82441 11.8355 3.19034 12.161C3.55627 12.4865 4.02891 12.6664 4.51867 12.6667H13.3333V11.3333H4.51867C4.35528 11.3333 4.19759 11.2733 4.07555 11.1646C3.95351 11.056 3.87562 10.9063 3.85667 10.744L3.76933 10H14.5573L16 2ZM13.4427 8.66667H3.61267L2.98533 3.33333H14.4047L13.4427 8.66667Z" fill="white"/>
<path d="M4.66683 16.0004C5.40321 16.0004 6.00016 15.4034 6.00016 14.6671C6.00016 13.9307 5.40321 13.3337 4.66683 13.3337C3.93045 13.3337 3.3335 13.9307 3.3335 14.6671C3.3335 15.4034 3.93045 16.0004 4.66683 16.0004Z" fill="white"/>
<path d="M11.3333 16.0004C12.0697 16.0004 12.6667 15.4034 12.6667 14.6671C12.6667 13.9307 12.0697 13.3337 11.3333 13.3337C10.597 13.3337 10 13.9307 10 14.6671C10 15.4034 10.597 16.0004 11.3333 16.0004Z" fill="white"/>
</svg>
