<svg width="12" height="16" viewBox="0 0 12 16" fill="none" xmlns="http://www.w3.org/2000/svg">
<path d="M12 16.0004H10.6667V12.6384C10.6661 12.1157 10.4583 11.6146 10.0887 11.245C9.71911 10.8755 9.218 10.6676 8.69533 10.6671H3.30467C2.782 10.6676 2.28089 10.8755 1.91131 11.245C1.54173 11.6146 1.33386 12.1157 1.33333 12.6384V16.0004H0V12.6384C0.00105855 11.7623 0.349568 10.9223 0.969083 10.3028C1.5886 9.68331 2.42854 9.3348 3.30467 9.33374H8.69533C9.57146 9.3348 10.4114 9.68331 11.0309 10.3028C11.6504 10.9223 11.9989 11.7623 12 12.6384V16.0004Z" fill="white"/>
<path d="M6 8C5.20888 8 4.43552 7.76541 3.77772 7.32588C3.11992 6.88635 2.60723 6.26164 2.30448 5.53074C2.00173 4.79983 1.92252 3.99556 2.07686 3.21964C2.2312 2.44372 2.61216 1.73098 3.17157 1.17157C3.73099 0.612165 4.44372 0.231202 5.21964 0.0768607C5.99557 -0.0774802 6.79983 0.00173314 7.53074 0.304484C8.26164 0.607234 8.88636 1.11992 9.32588 1.77772C9.76541 2.43552 10 3.20888 10 4C9.99894 5.06054 9.57718 6.07734 8.82726 6.82726C8.07734 7.57718 7.06054 7.99894 6 8ZM6 1.33334C5.47259 1.33334 4.95701 1.48973 4.51848 1.78275C4.07995 2.07577 3.73816 2.49224 3.53632 2.97951C3.33449 3.46678 3.28168 4.00296 3.38457 4.52024C3.48747 5.03753 3.74144 5.51268 4.11438 5.88562C4.48732 6.25856 4.96248 6.51254 5.47976 6.61543C5.99704 6.71832 6.53322 6.66551 7.02049 6.46368C7.50776 6.26185 7.92424 5.92005 8.21725 5.48152C8.51027 5.04299 8.66667 4.52742 8.66667 4C8.66667 3.29276 8.38572 2.61448 7.88562 2.11438C7.38552 1.61429 6.70725 1.33334 6 1.33334Z" fill="white"/>
</svg>
