<svg width="34" height="36" viewBox="0 0 34 36" fill="none" xmlns="http://www.w3.org/2000/svg">
<path d="M33.3959 20.4243L32.1245 18.4051C32.037 18.2722 31.9903 18.1158 31.9903 17.9558C31.9903 17.7959 32.037 17.6395 32.1245 17.5066L33.3959 15.4874C33.6875 15.0308 33.8753 14.5139 33.9457 13.9743C34.0162 13.4347 33.9675 12.8859 33.8032 12.3678C33.6383 11.8502 33.3607 11.3771 32.9909 10.9838C32.6212 10.5905 32.1688 10.2871 31.6676 10.0962L29.4924 9.24815C29.3433 9.19106 29.2141 9.09083 29.1205 8.95984C29.0269 8.82885 28.9732 8.67285 28.9659 8.51115L28.8467 6.14871C28.8209 5.60559 28.6755 5.07529 28.4212 4.59688C28.167 4.11846 27.8103 3.70414 27.3776 3.38443C26.9449 3.06472 26.4471 2.84778 25.9209 2.74959C25.3947 2.6514 24.8536 2.67446 24.3374 2.81708L22.0826 3.43293C21.93 3.47272 21.7694 3.46725 21.6198 3.41715C21.4702 3.36705 21.3378 3.27443 21.2383 3.15024L19.7683 1.3027C19.4275 0.888509 19.0002 0.556715 18.5174 0.331433C18.0346 0.106152 17.5085 -0.00695625 16.9773 0.000331043C16.4421 -0.00084451 15.9135 0.120098 15.4304 0.354241C14.9474 0.588383 14.5222 0.929754 14.1862 1.35318L12.746 3.20072C12.6442 3.32478 12.51 3.41712 12.3589 3.46713C12.2078 3.51714 12.0459 3.52278 11.8918 3.48341L9.63704 2.86756C9.12114 2.72406 8.58011 2.70038 8.05398 2.79824C7.52786 2.89611 7.03012 3.11303 6.59766 3.43293C6.16606 3.75428 5.81023 4.16923 5.55597 4.64769C5.30171 5.12615 5.1554 5.65613 5.12763 6.19919L5.00845 8.56163C5.0012 8.72333 4.94746 8.87933 4.8539 9.01032C4.76033 9.14131 4.63103 9.24154 4.482 9.29862L2.30677 10.1467C1.80592 10.3362 1.35416 10.6393 0.985848 11.0329C0.61753 11.4265 0.342348 11.9003 0.181186 12.4182C0.0125729 12.9352 -0.0392791 13.4841 0.0295045 14.0242C0.0982881 14.5642 0.285933 15.0816 0.578485 15.5379L1.84986 17.557C1.9374 17.69 1.98414 17.8463 1.98414 18.0063C1.98414 18.1663 1.9374 18.3226 1.84986 18.4556L0.578485 20.4748C0.288103 20.93 0.101695 21.4456 0.0329449 21.9837C-0.0358052 22.5218 0.0148533 23.0687 0.181186 23.5843C0.342348 24.1022 0.61753 24.576 0.985848 24.9696C1.35416 25.3632 1.80592 25.6663 2.30677 25.8558L4.482 26.714C4.63025 26.7693 4.75921 26.8677 4.85282 26.9969C4.94643 27.1262 5.00056 27.2806 5.00845 27.4409L5.12763 29.8134C5.15529 30.3559 5.30187 30.8851 5.55667 31.3626C5.81146 31.84 6.16802 32.2535 6.60026 32.5729C7.03251 32.8922 7.52952 33.1093 8.05494 33.2083C8.58036 33.3073 9.1209 33.2857 9.63704 33.1451L11.8918 32.5292C12.0448 32.4849 12.2072 32.4871 12.359 32.5355C12.5108 32.584 12.6453 32.6765 12.746 32.8018L14.2061 34.6493C14.5432 35.0713 14.9687 35.4115 15.4515 35.6451C15.9343 35.8788 16.4624 36 16.9971 36C17.5319 36 18.0599 35.8788 18.5428 35.6451C19.0256 35.4115 19.4511 35.0713 19.7882 34.6493L21.2582 32.8018C21.3564 32.6763 21.4892 32.5834 21.6395 32.5348C21.7899 32.4863 21.9511 32.4843 22.1025 32.5292L24.3572 33.1451C24.8734 33.2857 25.4139 33.3073 25.9393 33.2083C26.4647 33.1093 26.9617 32.8922 27.394 32.5729C27.8262 32.2535 28.1828 31.84 28.4376 31.3626C28.6924 30.8851 28.839 30.3559 28.8666 29.8134L28.9858 27.4409C28.9937 27.2806 29.0478 27.1262 29.1414 26.9969C29.235 26.8677 29.364 26.7693 29.5122 26.714L31.6875 25.8558C32.1882 25.6648 32.6401 25.3617 33.0099 24.9691C33.3798 24.5764 33.658 24.1042 33.8239 23.5875C33.9899 23.0707 34.0394 22.5227 33.9687 21.9838C33.8981 21.445 33.7091 20.9293 33.4158 20.4748L33.3959 20.4243ZM2.88286 21.9588L4.15424 19.9397C4.53337 19.3479 4.7352 18.657 4.7352 17.9508C4.7352 17.2446 4.53337 16.5537 4.15424 15.9619L2.88286 13.9427C2.81508 13.84 2.77172 13.7227 2.7562 13.6001C2.74069 13.4774 2.75344 13.3528 2.79346 13.236C2.82799 13.1172 2.88896 13.0081 2.97163 12.917C3.0543 12.826 3.15648 12.7555 3.27023 12.711L5.45541 11.863C6.09958 11.6203 6.66134 11.1942 7.07353 10.6356C7.48571 10.077 7.73085 9.40956 7.77964 8.71306L7.90877 6.34054C7.91422 6.22005 7.94582 6.10228 8.00132 5.99567C8.05681 5.88906 8.1348 5.79624 8.22973 5.72387C8.32466 5.65151 8.43417 5.60138 8.5504 5.57708C8.66663 5.55279 8.78671 5.55493 8.90204 5.58335L11.1567 6.19919C11.8267 6.38234 12.5347 6.36341 13.1943 6.14471C13.8539 5.92601 14.4367 5.51699 14.8715 4.9675L16.3416 3.11995C16.4191 3.02502 16.5162 2.94865 16.6261 2.8963C16.736 2.84394 16.8559 2.81689 16.9773 2.81708C17.0986 2.81689 17.2185 2.84394 17.3284 2.8963C17.4383 2.94865 17.5354 3.02502 17.6129 3.11995L19.083 4.9675C19.5187 5.51597 20.1015 5.92424 20.7608 6.14286C21.4202 6.36147 22.1277 6.38104 22.7978 6.19919L25.0525 5.58335C25.1675 5.55853 25.2864 5.55902 25.4013 5.58477C25.5161 5.61053 25.6242 5.66096 25.7183 5.73268C25.8124 5.8044 25.8903 5.89574 25.9467 6.00059C26.0032 6.10543 26.037 6.22134 26.0458 6.34054L26.165 8.71306C26.2001 9.41665 26.4357 10.0947 26.8431 10.6647C27.2504 11.2346 27.812 11.672 28.4594 11.9236L30.6446 12.7716C30.7583 12.8161 30.8605 12.8866 30.9432 12.9776C31.0258 13.0686 31.0868 13.1778 31.1213 13.2966C31.1613 13.4134 31.1741 13.538 31.1586 13.6607C31.1431 13.7833 31.0997 13.9006 31.0319 14.0033L29.7606 16.0225C29.3814 16.6142 29.1796 17.3052 29.1796 18.0114C29.1796 18.7175 29.3814 19.4085 29.7606 20.0002L31.0319 22.0194C31.0997 22.1221 31.1431 22.2394 31.1586 22.3621C31.1741 22.4847 31.1613 22.6094 31.1213 22.7261C31.0848 22.8427 31.023 22.9495 30.9405 23.0387C30.858 23.1278 30.7569 23.1969 30.6446 23.241L28.4594 24.0891C27.826 24.345 27.2775 24.7791 26.8782 25.3406C26.4788 25.9021 26.2452 26.5676 26.2047 27.2592L26.0855 29.6216C26.0781 29.7417 26.0453 29.8587 25.9894 29.9648C25.9335 30.0708 25.8558 30.1634 25.7615 30.2362C25.6673 30.309 25.5588 30.3603 25.4433 30.3867C25.3278 30.413 25.208 30.4138 25.0922 30.3889L22.8375 29.773C22.1686 29.5861 21.4605 29.6022 20.8004 29.8193C20.1403 30.0363 19.5572 30.4449 19.1227 30.9946L17.6527 32.8422C17.5757 32.9384 17.4789 33.0163 17.369 33.0704C17.2592 33.1245 17.139 33.1534 17.017 33.1552C16.8949 33.1534 16.7748 33.1245 16.665 33.0704C16.5551 33.0163 16.4583 32.9384 16.3813 32.8422L14.9113 30.9946C14.5773 30.5714 14.1539 30.2301 13.6725 29.9959C13.191 29.7617 12.6639 29.6407 12.1301 29.6418C11.8144 29.64 11.4999 29.6842 11.1965 29.773L8.94176 30.3889C8.82331 30.4181 8.70013 30.4215 8.5803 30.3989C8.46047 30.3762 8.34671 30.3281 8.24648 30.2576C8.14964 30.1845 8.07 30.0904 8.01332 29.9821C7.95663 29.8739 7.92431 29.7542 7.9187 29.6317L7.77964 27.2592C7.74511 26.5542 7.5099 25.8745 7.10259 25.3028C6.69529 24.7311 6.13341 24.2919 5.48521 24.0386L3.30003 23.1905C3.18772 23.1464 3.08658 23.0773 3.00407 22.9882C2.92155 22.8991 2.85976 22.7923 2.82325 22.6756C2.77725 22.5598 2.75869 22.4345 2.76904 22.31C2.77939 22.1855 2.81838 22.0652 2.88286 21.9588Z" fill="#257DE3"/>
<path d="M10.2533 24.6951C10.5184 24.9598 10.875 25.1084 11.2466 25.109C11.4309 25.1109 11.6138 25.0753 11.7844 25.0042C11.955 24.9331 12.1099 24.828 12.2398 24.6951L22.8678 13.8925C23.0011 13.7616 23.1072 13.6048 23.1797 13.4313C23.2521 13.2579 23.2894 13.0714 23.2894 12.8829C23.2894 12.6945 23.2521 12.508 23.1797 12.3345C23.1072 12.1611 23.0011 12.0042 22.8678 11.8733C22.7383 11.739 22.5838 11.6323 22.4132 11.5595C22.2426 11.4866 22.0595 11.4491 21.8745 11.4491C21.6895 11.4491 21.5063 11.4866 21.3358 11.5595C21.1652 11.6323 21.0107 11.739 20.8812 11.8733L10.2533 22.6759C10.1212 22.8075 10.0162 22.9646 9.94452 23.1379C9.87285 23.3113 9.83594 23.4975 9.83594 23.6855C9.83594 23.8735 9.87285 24.0597 9.94452 24.233C10.0162 24.4064 10.1212 24.5635 10.2533 24.6951Z" fill="#257DE3"/>
<path d="M12.3687 16.6182C13.0378 16.6182 13.6795 16.348 14.1527 15.8671C14.6258 15.3862 14.8916 14.734 14.8916 14.0539C14.8946 13.7179 14.8311 13.3848 14.7048 13.0743C14.5786 12.7639 14.3921 12.4824 14.1566 12.2467C13.8639 11.9472 13.503 11.7257 13.1058 11.602C12.7087 11.4784 12.2877 11.4562 11.8802 11.5376C11.4726 11.619 11.0912 11.8014 10.7696 12.0687C10.4481 12.3359 10.1965 12.6797 10.037 13.0695C9.87759 13.4593 9.81531 13.8831 9.85571 14.3033C9.89611 14.7235 10.0379 15.127 10.2686 15.478C10.4993 15.8291 10.8117 16.1169 11.178 16.3158C11.5444 16.5147 11.9534 16.6185 12.3687 16.6182Z" fill="#257DE3"/>
<path d="M20.6918 19.9802C20.1928 19.9802 19.7051 20.1306 19.2902 20.4124C18.8753 20.6942 18.5519 21.0947 18.361 21.5632C18.17 22.0318 18.1201 22.5474 18.2174 23.0449C18.3148 23.5423 18.555 23.9992 18.9079 24.3578C19.2607 24.7165 19.7102 24.9607 20.1996 25.0596C20.689 25.1586 21.1963 25.1078 21.6573 24.9137C22.1183 24.7196 22.5123 24.391 22.7895 23.9693C23.0668 23.5475 23.2147 23.0518 23.2147 22.5446C23.2147 22.2078 23.1495 21.8744 23.0227 21.5632C22.8959 21.2521 22.71 20.9694 22.4758 20.7313C22.2415 20.4932 21.9634 20.3043 21.6573 20.1754C21.3512 20.0466 21.0231 19.9802 20.6918 19.9802Z" fill="#257DE3"/>
</svg>
